<?xml version="1.0" encoding="UTF-8"?>
<svg id="Layer_3" data-name="Layer 3" xmlns="http://www.w3.org/2000/svg" viewBox="0 0 125 125">
  <defs>
    <style>
      .cls-1 {
        fill: #e7e7e7;
      }
    </style>
  </defs>
  <circle cx="62.5" cy="62.5" r="62.5"/>
  <path class="cls-1" d="m37.61,43.81v32.51c0,1.16.94,2.1,2.1,2.1h4.75c.33-3.24,3.06-5.77,6.39-5.77s6.06,2.53,6.39,5.77h21.27c1.16,0,2.1-.94,2.1-2.1v-32.51c0-1.16-.94-2.1-2.1-2.1h-38.8c-1.16,0-2.1.94-2.1,2.1Z"/>
  <g>
    <path class="cls-1" d="m93.81,49.58h-8.57c-1.01,0-1.82.82-1.82,1.82v25.72c0,1.01.82,1.82,1.82,1.82h0c.84,0,1.57-.57,1.77-1.38.68-2.82,3.22-4.91,6.24-4.91,3.5,0,6.35,2.81,6.42,6.29h2.1c1.16,0,2.1-.94,2.1-2.1v-12.76c0-.4-.12-.79-.33-1.13l-7.96-12.41c-.39-.6-1.05-.96-1.77-.96Zm-7.24,10.49v-5.51c0-1.16.94-2.1,2.1-2.1h3.82c.73,0,1.4.37,1.78.99l3.42,5.51c.87,1.4-.14,3.2-1.78,3.2h-7.24c-1.16,0-2.1-.94-2.1-2.1Z"/>
    <g>
      <path class="cls-1" d="m93.25,81.89c-1.55,0-2.82-1.26-2.82-2.82s1.26-2.82,2.82-2.82,2.82,1.26,2.82,2.82-1.26,2.82-2.82,2.82Z"/>
      <path class="cls-1" d="m93.25,77.11c1.09,0,1.97.88,1.97,1.97s-.88,1.97-1.97,1.97-1.97-.88-1.97-1.97.88-1.97,1.97-1.97m0-1.7c-2.02,0-3.67,1.64-3.67,3.67s1.64,3.67,3.67,3.67,3.67-1.64,3.67-3.67-1.64-3.67-3.67-3.67h0Z"/>
    </g>
  </g>
  <g>
    <path class="cls-1" d="m50.85,81.89c-1.55,0-2.82-1.26-2.82-2.82s1.26-2.82,2.82-2.82,2.82,1.26,2.82,2.82-1.26,2.82-2.82,2.82Z"/>
    <path class="cls-1" d="m50.85,77.11c1.09,0,1.97.88,1.97,1.97s-.88,1.97-1.97,1.97-1.97-.88-1.97-1.97.88-1.97,1.97-1.97m0-1.7c-2.02,0-3.67,1.64-3.67,3.67s1.64,3.67,3.67,3.67,3.67-1.64,3.67-3.67-1.64-3.67-3.67-3.67h0Z"/>
  </g>
  <path class="cls-1" d="m50.98,70.29H17.42c-.58,0-1.05-.47-1.05-1.05s.47-1.05,1.05-1.05h33.56c.58,0,1.05.47,1.05,1.05s-.47,1.05-1.05,1.05Z"/>
  <path d="m50.98,68.19h-17.04c-.58,0-1.05-.47-1.05-1.05s.47-1.05,1.05-1.05h17.04c.58,0,1.05.47,1.05,1.05s-.47,1.05-1.05,1.05Z"/>
  <path class="cls-1" d="m57.01,56.92h-26.48c-.58,0-1.05-.47-1.05-1.05s.47-1.05,1.05-1.05h26.48c.58,0,1.05.47,1.05,1.05s-.47,1.05-1.05,1.05Z"/>
  <path class="cls-1" d="m49.67,63.74h-26.48c-.58,0-1.05-.47-1.05-1.05s.47-1.05,1.05-1.05h26.48c.58,0,1.05.47,1.05,1.05s-.47,1.05-1.05,1.05Z"/>
  <path d="m57.27,54.82h-26.48c-.58,0-1.05-.47-1.05-1.05s.47-1.05,1.05-1.05h26.48c.58,0,1.05.47,1.05,1.05s-.47,1.05-1.05,1.05Z"/>
  <path d="m64.09,61.64h-26.48c-.58,0-1.05-.47-1.05-1.05s.47-1.05,1.05-1.05h26.48c.58,0,1.05.47,1.05,1.05s-.47,1.05-1.05,1.05Z"/>
  <path d="m46.78,48.53h-19.67c-.58,0-1.05-.47-1.05-1.05s.47-1.05,1.05-1.05h19.67c.58,0,1.05.47,1.05,1.05s-.47,1.05-1.05,1.05Z"/>
  <path class="cls-1" d="m46.78,50.63h-19.67c-.58,0-1.05-.47-1.05-1.05s.47-1.05,1.05-1.05h19.67c.58,0,1.05.47,1.05,1.05s-.47,1.05-1.05,1.05Z"/>
</svg>