<?xml version="1.0" encoding="UTF-8"?>
<svg id="Layer_2" data-name="Layer 2" xmlns="http://www.w3.org/2000/svg" viewBox="0 0 125 125">
  <defs>
    <style>
      .cls-1 {
        fill: #fff;
      }

      .cls-2 {
        fill: #e8e8e8;
      }

      .cls-3 {
        fill: #181818;
      }
    </style>
  </defs>
  <g>
    <circle class="cls-2" cx="62.5" cy="62.5" r="61.15"/>
    <path d="m62.5,2.7c32.97,0,59.8,26.83,59.8,59.8s-26.83,59.8-59.8,59.8S2.7,95.47,2.7,62.5,29.53,2.7,62.5,2.7m0-2.7C27.98,0,0,27.98,0,62.5s27.98,62.5,62.5,62.5,62.5-27.98,62.5-62.5S97.02,0,62.5,0h0Z"/>
  </g>
  <g>
    <g>
      <g>
        <path class="cls-3" d="m84.14,61.15l11.43-5.05c1.26-.56,1.85-2.01,1.33-3.29l-7.1-17.53-14.57-5.81-6,5.81-12.36,1.82-3.92-7.63-14.57,5.81-7.1,17.53c-.52,1.27.07,2.73,1.33,3.29l11.43,5.05"/>
        <path class="cls-1" d="m84.14,62.15c-.38,0-.75-.22-.92-.6-.22-.51,0-1.1.51-1.32l11.43-5.05c.77-.34,1.12-1.22.81-2l-6.94-17.13-13.57-5.41-5.54,5.36c-.15.15-.34.24-.55.27l-12.35,1.82c-.42.06-.84-.15-1.04-.53l-3.51-6.82-13.33,5.31-6.94,17.13c-.32.78.04,1.66.81,2l11.43,5.05c.5.22.73.81.51,1.32-.22.51-.81.73-1.32.51l-11.43-5.05c-1.76-.78-2.58-2.79-1.85-4.58l7.1-17.53c.1-.25.3-.45.56-.55l14.57-5.81c.48-.19,1.02.01,1.26.47l3.59,7,11.33-1.67,5.77-5.59c.28-.27.7-.36,1.07-.21l14.57,5.81c.25.1.45.3.56.55l7.1,17.53c.72,1.79-.09,3.8-1.85,4.58l-11.43,5.05c-.13.06-.27.09-.4.09Z"/>
      </g>
      <g>
        <path class="cls-3" d="m38.3,35.37l6.05,13.37v43.61c0,1.41,1.14,2.55,2.55,2.55h34.38c1.41,0,2.55-1.14,2.55-2.55v-43.61s6.05-13.37,6.05-13.37"/>
        <path class="cls-2" d="m81.27,95.89h-34.38c-1.96,0-3.55-1.59-3.55-3.55v-43.39l-5.96-13.17c-.23-.5,0-1.1.5-1.32.5-.23,1.1,0,1.32.5l6.05,13.37c.06.13.09.27.09.41v43.61c0,.85.69,1.55,1.55,1.55h34.38c.85,0,1.55-.69,1.55-1.55v-43.61c0-.14.03-.28.09-.41l6.05-13.37c.23-.5.82-.73,1.32-.5.5.23.73.82.5,1.32l-5.96,13.17v43.39c0,1.96-1.59,3.55-3.55,3.55Z"/>
      </g>
    </g>
    <g>
      <path class="cls-3" d="m75.22,29.48c0,5.71-4.99,10.34-11.14,10.34s-11.14-4.63-11.14-10.34c.8,2.23,6.69,3.66,11.14,3.66s9.71-1.43,11.14-3.66Z"/>
      <path class="cls-2" d="m64.08,40.82c-6.69,0-12.14-5.09-12.14-11.34,0-.49.35-.9.83-.99.48-.08.95.19,1.11.65.48,1.35,5.28,3,10.2,3,4.47,0,9.18-1.47,10.3-3.2.24-.37.7-.54,1.12-.42.43.12.72.52.72.96,0,6.26-5.45,11.34-12.14,11.34Zm-9.73-8.7c1.24,3.87,5.13,6.7,9.73,6.7s8.62-2.93,9.79-6.9c-2.56,1.45-6.5,2.21-9.79,2.21-3.02,0-7.13-.64-9.73-2.02Z"/>
    </g>
    <path class="cls-2" d="m44.03,62.15c-.14,0-.27-.03-.4-.09l-11.43-5.05c-1.76-.78-2.58-2.79-1.85-4.58l7.1-17.53c.1-.25.3-.45.56-.55l14.57-5.81c.51-.2,1.09.05,1.3.56.2.51-.05,1.09-.56,1.3l-14.17,5.65-6.94,17.13c-.32.78.04,1.66.81,2l11.43,5.05c.5.22.73.81.51,1.32-.17.37-.53.6-.92.6Z"/>
    <path class="cls-2" d="m84.14,62.15c-.38,0-.75-.22-.92-.6-.22-.51,0-1.1.51-1.32l11.43-5.05c.77-.34,1.12-1.22.81-2l-6.94-17.13-14.17-5.65c-.51-.2-.76-.79-.56-1.3.2-.51.79-.76,1.3-.56l14.57,5.81c.25.1.45.3.56.55l7.1,17.53c.72,1.79-.09,3.8-1.85,4.58l-11.43,5.05c-.13.06-.27.09-.4.09Z"/>
  </g>
</svg>