<?xml version="1.0" encoding="UTF-8"?>
<svg id="Layer_3" data-name="Layer 3" xmlns="http://www.w3.org/2000/svg" viewBox="0 0 125 125">
  <defs>
    <style>
      .cls-1 {
        fill: #e8e8e8;
      }

      .cls-2 {
        fill: #c6c6c6;
      }
    </style>
  </defs>
  <g>
    <circle class="cls-1" cx="62.5" cy="62.5" r="61.15"/>
    <path class="cls-2" d="m62.5,2.7c32.97,0,59.8,26.83,59.8,59.8s-26.83,59.8-59.8,59.8S2.7,95.47,2.7,62.5,29.53,2.7,62.5,2.7m0-2.7C27.98,0,0,27.98,0,62.5s27.98,62.5,62.5,62.5,62.5-27.98,62.5-62.5S97.02,0,62.5,0h0Z"/>
  </g>
  <g>
    <path class="cls-2" d="m32.25,62.85c-.38,0-.77-.15-1.05-.45-.55-.58-.53-1.5.05-2.05l28.11-26.69c1.68-1.62,4.33-1.62,6.02,0l27.87,26.69c.58.55.6,1.47.04,2.05-.55.58-1.47.6-2.05.04l-27.88-26.69c-.57-.54-1.45-.54-2.01,0l-28.12,26.7c-.28.27-.64.4-1,.4h.02Z"/>
    <g>
      <path class="cls-2" d="m61.1,38.18l-21.95,21.12c-.57.55-.89,1.3-.89,2.09v23.74c0,1.6,1.3,2.9,2.9,2.9h11.77c1.6,0,2.9-1.3,2.9-2.9v-16.29c0-1.6,1.3-2.9,2.9-2.9h7.62c1.6,0,2.9,1.3,2.9,2.9v16.29c0,1.6,1.3,2.9,2.9,2.9h11.77c1.6,0,2.9-1.3,2.9-2.9v-23.74c0-.79-.32-1.54-.89-2.09l-21.95-21.12c-.8-.77-2.06-.77-2.86,0h-.02Z"/>
      <path class="cls-1" d="m83.9,89.02h-11.77c-2.15,0-3.9-1.75-3.9-3.9v-16.29c0-1.05-.85-1.9-1.9-1.9h-7.62c-1.04,0-1.9.85-1.9,1.9v16.29c0,2.15-1.75,3.9-3.9,3.9h-11.77c-2.15,0-3.9-1.75-3.9-3.9v-23.74c0-1.05.44-2.08,1.2-2.81l21.95-21.12c1.19-1.14,3.05-1.14,4.24,0l21.95,21.12c.76.73,1.2,1.75,1.2,2.81v23.74c0,2.15-1.75,3.9-3.9,3.9h.02Zm-25.18-24.08h7.62c2.15,0,3.9,1.75,3.9,3.9v16.29c0,1.05.85,1.9,1.9,1.9h11.77c1.05,0,1.9-.85,1.9-1.9v-23.74c0-.51-.21-1.01-.58-1.37l-21.95-21.12c-.41-.4-1.06-.4-1.47,0l-21.95,21.12c-.37.36-.58.85-.58,1.37v23.74c0,1.05.85,1.9,1.9,1.9h11.77c1.04,0,1.9-.85,1.9-1.9v-16.29c0-2.15,1.75-3.9,3.9-3.9h-.03Z"/>
    </g>
    <path class="cls-2" d="m85.17,56.12l-10.86-10.5v-5.43c0-1.6,1.3-2.9,2.9-2.9h5.07c1.6,0,2.9,1.3,2.9,2.9v15.93h-.01Z"/>
  </g>
</svg>