<?xml version="1.0" encoding="UTF-8"?>
<svg id="Layer_1" data-name="Layer 1" xmlns="http://www.w3.org/2000/svg" viewBox="0 0 125 125">
  <defs>
    <style>
      .cls-1 {
        fill: #e8e8e8;
      }

      .cls-2 {
        fill: #181818;
      }
    </style>
  </defs>
  <g>
    <circle class="cls-1" cx="62.5" cy="62.5" r="61.15" transform="translate(-25.89 62.5) rotate(-45)"/>
    <path d="m62.5,2.7c32.97,0,59.8,26.83,59.8,59.8s-26.83,59.8-59.8,59.8S2.7,95.47,2.7,62.5,29.53,2.7,62.5,2.7m0-2.7C27.98,0,0,27.98,0,62.5s27.98,62.5,62.5,62.5,62.5-27.98,62.5-62.5S97.02,0,62.5,0h0Z"/>
  </g>
  <g>
    <g>
      <rect class="cls-2" x="31.36" y="32.23" width="28.9" height="53.97" rx="3.32" ry="3.32"/>
      <path class="cls-1" d="m56.94,33.33c1.22,0,2.21.99,2.21,2.21v47.33c0,1.22-.99,2.21-2.21,2.21h-22.26c-1.22,0-2.21-.99-2.21-2.21v-47.33c0-1.22.99-2.21,2.21-2.21h22.26m0-2.21h-22.26c-2.44,0-4.43,1.99-4.43,4.43v47.33c0,2.44,1.99,4.43,4.43,4.43h22.26c2.44,0,4.43-1.99,4.43-4.43v-47.33c0-2.44-1.99-4.43-4.43-4.43h0Z"/>
    </g>
    <g>
      <g>
        <path class="cls-2" d="m67.24,86.2c-1.5,0-2.73-1.22-2.73-2.72,0-.72.28-1.41.79-1.92.52-.52,1.2-.8,1.93-.8h3.34v-8.85h13.13v8.85h3.34c1.5,0,2.73,1.22,2.73,2.72,0,.72-.28,1.41-.79,1.92-.52.52-1.2.8-1.93.8,0,0-19.81,0-19.81,0Z"/>
        <path class="cls-1" d="m82.6,73v8.85h4.45c.89,0,1.62.72,1.62,1.62,0,.45-.18.85-.47,1.14s-.7.47-1.15.47h-19.81c-.89,0-1.62-.72-1.62-1.62,0-.45.18-.85.47-1.14s.7-.47,1.15-.47h4.45v-8.85h10.92m2.21-2.21h-15.34v8.85h-2.23c-1.03,0-1.99.4-2.71,1.12-.73.73-1.12,1.69-1.12,2.71,0,2.11,1.72,3.83,3.83,3.83h19.81c1.03,0,1.99-.4,2.71-1.12s1.12-1.69,1.12-2.71c0-2.11-1.72-3.83-3.83-3.83h-2.23v-8.85h0Z"/>
      </g>
      <circle class="cls-1" cx="45.61" cy="72.76" r="2.63"/>
      <g>
        <rect class="cls-2" x="53.9" y="43.04" width="46.5" height="29.92" rx="3.09" ry="3.09"/>
        <path class="cls-1" d="m97.3,74.07h-40.31c-2.32,0-4.2-1.88-4.2-4.2v-23.73c0-2.32,1.88-4.2,4.2-4.2h40.31c2.32,0,4.2,1.88,4.2,4.2v23.73c0,2.32-1.88,4.2-4.2,4.2Zm-40.31-29.92c-1.1,0-1.99.89-1.99,1.99v23.73c0,1.1.89,1.99,1.99,1.99h40.31c1.1,0,1.99-.89,1.99-1.99v-23.73c0-1.1-.89-1.99-1.99-1.99h-40.31Z"/>
      </g>
      <path class="cls-1" d="m52.68,57.89h-15.77c-.61,0-1.11-.5-1.11-1.11s.5-1.11,1.11-1.11h15.77c.61,0,1.11.5,1.11,1.11s-.5,1.11-1.11,1.11Z"/>
      <path class="cls-1" d="m52.68,50.21h-15.77c-.61,0-1.11-.5-1.11-1.11s.5-1.11,1.11-1.11h15.77c.61,0,1.11.5,1.11,1.11s-.5,1.11-1.11,1.11Z"/>
      <path class="cls-1" d="m52.68,65.51h-15.77c-.61,0-1.11-.5-1.11-1.11s.5-1.11,1.11-1.11h15.77c.61,0,1.11.5,1.11,1.11s-.5,1.11-1.11,1.11Z"/>
    </g>
  </g>
</svg>